# xmcd CD database file
#
# Track frame offsets:
#	150
#	14102
#	24976
#	41853
#	61355
#	80685
#	91434
#	110283
#
# Disc length: 1635 seconds
#
# Revision: 0
# Processed by: cddbd v1.5.2PL0 Copyright (c) Steve Scherf et al.
# Submitted via: CDex 1.51
#
DISCID=65066108
DTITLE=Cherry Blossom - Demo 2012
DYEAR=2012
DGENRE=Jazz
TTITLE0=Don't know why
TTITLE1=Schiess mich doch zum Mond
TTITLE2=Turn me on
TTITLE3=Miss Celies Blues (Sister)
TTITLE4=Song for my father
TTITLE5=Sway
TTITLE6=Cry me a river
TTITLE7=Geld ist nicht wichtig
EXTD=YEAR: 2012
EXTT0=
EXTT1=
EXTT2=
EXTT3=
EXTT4=
EXTT5=
EXTT6=
EXTT7=
PLAYORDER=
